<svg xmlns="http://www.w3.org/2000/svg" viewBox="0 0 64 64" role="img" aria-label="REDnet">
  <!-- DEFAULT REDnet favicon (square mesh-node mark). Replace to white-label. -->
  <title>REDnet</title>
  <rect width="64" height="64" rx="14" fill="#16181B"/>
  <g stroke="#E5484D" stroke-width="2" stroke-opacity="0.7" stroke-linecap="round">
    <line x1="32" y1="32" x2="32" y2="15"/>
    <line x1="32" y1="32" x2="47" y2="24"/>
    <line x1="32" y1="32" x2="47" y2="40"/>
    <line x1="32" y1="32" x2="32" y2="49"/>
    <line x1="32" y1="32" x2="17" y2="40"/>
    <line x1="32" y1="32" x2="17" y2="24"/>
  </g>
  <path d="M32 15 L47 24 L47 40 L32 49 L17 40 L17 24 Z" fill="none" stroke="#E5484D" stroke-width="2.5" stroke-opacity="0.4" stroke-linejoin="round"/>
  <g fill="#E5484D">
    <circle cx="32" cy="32" r="5.5"/>
    <circle cx="32" cy="15" r="3.2"/>
    <circle cx="47" cy="24" r="3.2"/>
    <circle cx="47" cy="40" r="3.2"/>
    <circle cx="32" cy="49" r="3.2"/>
    <circle cx="17" cy="40" r="3.2"/>
    <circle cx="17" cy="24" r="3.2"/>
  </g>
</svg>
